<svg width="2477" height="2122" viewBox="0 0 2477 2122" fill="none" xmlns="http://www.w3.org/2000/svg">
<path d="M1611.9 1783.07L2473.86 2117.79L2461.68 2107.39M1611.9 1783.07L2050.29 1756.41M1611.9 1783.07L2005.85 1350.61M2050.29 1756.41L2461.68 2107.39M2050.29 1756.41L2005.85 1350.61M2005.85 1350.61L2461.68 2107.39" stroke="white" stroke-width="7"/>
<path d="M198.988 2105.94L2103.6 1066.25M198.988 2105.94L1330.5 1634.97M198.988 2105.94L1496.38 1791.96M2103.6 1066.25L1496.38 1791.96M2103.6 1066.25L1330.5 1634.97M1496.38 1791.96L1330.5 1634.97" stroke="white" stroke-width="7"/>
<path d="M738.086 1685.32L1872.56 1107.72M738.086 1685.32L1321.62 962.577M738.086 1685.32L1238.68 8.78809M1872.56 1107.72L1321.62 962.577M1872.56 1107.72L1238.68 8.78809M1321.62 962.577L1238.68 8.78809" stroke="white" stroke-width="7"/>
<path d="M1087.61 207.248L9.41406 2076.32M1087.61 207.248L646.261 1717.91M1087.61 207.248L560.361 1480.94M9.41406 2076.32L646.261 1717.91M9.41406 2076.32L560.361 1480.94M646.261 1717.91L560.361 1480.94" stroke="white" stroke-width="7"/>
</svg>
