<svg width="345" height="296" viewBox="0 0 345 296" fill="none" xmlns="http://www.w3.org/2000/svg">
<path d="M224.88 248.146L343.23 294.103L341.557 292.676M224.88 248.146L285.072 244.486M224.88 248.146L278.971 188.768M285.072 244.486L341.557 292.676M285.072 244.486L278.971 188.768M278.971 188.768L341.557 292.676" stroke="#98012E" stroke-opacity="0.1" stroke-width="3.61"/>
<path d="M30.8842 292.476L292.393 149.724M30.8842 292.476L186.244 227.811M30.8842 292.476L209.019 249.366M292.393 149.724L209.019 249.366M292.393 149.724L186.244 227.811M209.019 249.366L186.244 227.811" stroke="#98012E" stroke-opacity="0.1" stroke-width="3.61"/>
<path d="M104.903 234.725L260.669 155.418M104.903 234.725L185.023 135.49M104.903 234.725L173.635 4.53223M260.669 155.418L185.023 135.49M260.669 155.418L173.635 4.53223M185.023 135.49L173.635 4.53223" stroke="#98012E" stroke-opacity="0.1" stroke-width="3.61"/>
<path d="M152.894 31.7812L4.85468 288.409M152.894 31.7812L92.2953 239.199M152.894 31.7812L80.501 206.663M4.85468 288.409L92.2953 239.199M4.85468 288.409L80.501 206.663M92.2953 239.199L80.501 206.663" stroke="#98012E" stroke-opacity="0.1" stroke-width="3.61"/>
</svg>
