<svg width="32" height="32" viewBox="0 0 32 32" fill="none" xmlns="http://www.w3.org/2000/svg">
<path fill-rule="evenodd" clip-rule="evenodd" d="M16.328 27.9587C17.8615 26.5672 19.2807 25.0548 20.572 23.436C23.292 20.0187 24.9467 16.6494 25.0587 13.6534C25.103 12.4357 24.9015 11.2217 24.4661 10.0837C24.0307 8.94576 23.3704 7.90722 22.5247 7.03014C21.679 6.15306 20.6651 5.45544 19.5437 4.97896C18.4224 4.50247 17.2164 4.25689 15.998 4.25689C14.7796 4.25689 13.5737 4.50247 12.4523 4.97896C11.3309 5.45544 10.3171 6.15306 9.47137 7.03014C8.62564 7.90722 7.96536 8.94576 7.52998 10.0837C7.0946 11.2217 6.89305 12.4357 6.93736 13.6534C7.0507 16.6494 8.7067 20.0187 11.4254 23.436C12.7166 25.0548 14.1359 26.5672 15.6694 27.9587C15.8169 28.092 15.9267 28.1889 15.9987 28.2494L16.328 27.9587ZM15.0147 29.512C15.0147 29.512 5.33203 21.3574 5.33203 13.3334C5.33203 10.5044 6.45584 7.79127 8.45623 5.79088C10.4566 3.79049 13.1697 2.66669 15.9987 2.66669C18.8277 2.66669 21.5408 3.79049 23.5412 5.79088C25.5416 7.79127 26.6654 10.5044 26.6654 13.3334C26.6654 21.3574 16.9827 29.512 16.9827 29.512C16.444 30.008 15.5574 30.0027 15.0147 29.512ZM15.9987 17.0667C16.9888 17.0667 17.9384 16.6734 18.6386 15.9732C19.3387 15.2731 19.732 14.3235 19.732 13.3334C19.732 12.3432 19.3387 11.3936 18.6386 10.6935C17.9384 9.99335 16.9888 9.60002 15.9987 9.60002C15.0086 9.60002 14.059 9.99335 13.3588 10.6935C12.6587 11.3936 12.2654 12.3432 12.2654 13.3334C12.2654 14.3235 12.6587 15.2731 13.3588 15.9732C14.059 16.6734 15.0086 17.0667 15.9987 17.0667ZM15.9987 18.6667C14.5842 18.6667 13.2277 18.1048 12.2275 17.1046C11.2273 16.1044 10.6654 14.7478 10.6654 13.3334C10.6654 11.9189 11.2273 10.5623 12.2275 9.56212C13.2277 8.56192 14.5842 8.00002 15.9987 8.00002C17.4132 8.00002 18.7697 8.56192 19.7699 9.56212C20.7701 10.5623 21.332 11.9189 21.332 13.3334C21.332 14.7478 20.7701 16.1044 19.7699 17.1046C18.7697 18.1048 17.4132 18.6667 15.9987 18.6667Z" fill="#98012E"/>
</svg>
