<svg width="32" height="32" viewBox="0 0 32 32" fill="none" xmlns="http://www.w3.org/2000/svg">
<path d="M27.772 17.148C28 16.5973 28 15.8973 28 14.5C28 13.1027 28 12.4027 27.772 11.852C27.6212 11.4879 27.4002 11.1571 27.1216 10.8784C26.8429 10.5998 26.5121 10.3788 26.148 10.228C25.5973 10 24.8973 10 23.5 10H14.8C13.12 10 12.28 10 11.6387 10.3267C11.0737 10.6144 10.6144 11.0737 10.3267 11.6387C10 12.2787 10 13.1187 10 14.8V23.5C10 24.8973 10 25.5973 10.228 26.148C10.5333 26.8827 11.1173 27.468 11.852 27.772C12.4027 28 13.1027 28 14.5 28C15.8973 28 16.5973 28 17.148 27.772M27.772 17.148C27.6212 17.5121 27.4002 17.8429 27.1216 18.1216C26.8429 18.4002 26.5121 18.6212 26.148 18.772C25.5973 19 24.8973 19 23.5 19C22.1027 19 21.4027 19 20.852 19.228C20.4879 19.3788 20.1571 19.5998 19.8784 19.8784C19.5998 20.1571 19.3788 20.4879 19.228 20.852C19 21.4027 19 22.1027 19 23.5C19 24.8973 19 25.5973 18.772 26.148C18.6212 26.5121 18.4002 26.8429 18.1216 27.1216C17.8429 27.4002 17.5121 27.6212 17.148 27.772M27.772 17.148C27.0547 19.6212 25.7354 21.8779 23.932 23.7162C22.1287 25.5544 19.8977 26.9168 17.4387 27.6813L17.148 27.772M22 10V8.8C22 7.12 22 6.28 21.6733 5.63867C21.386 5.07388 20.9272 4.6146 20.3627 4.32667C19.72 4 18.88 4 17.2 4H8.8C7.12 4 6.28 4 5.63867 4.32667C5.07368 4.61437 4.61437 5.07368 4.32667 5.63867C4 6.27867 4 7.11867 4 8.8V17.2C4 18.88 4 19.72 4.32667 20.3613C4.61467 20.9267 5.07333 21.3853 5.63867 21.6733C6.27867 22 7.12 22 8.80133 22H10" stroke="#1E1E1E" stroke-width="1.5" stroke-linecap="round" stroke-linejoin="round"/>
</svg>
