<svg width="32" height="32" viewBox="0 0 32 32" fill="none" xmlns="http://www.w3.org/2000/svg">
<path d="M25.401 6.54664C24.1785 5.31211 22.7224 4.33326 21.1177 3.66712C19.513 3.00098 17.7918 2.66088 16.0544 2.66664C8.77437 2.66664 2.84104 8.59997 2.84104 15.88C2.84104 18.2133 3.45438 20.48 4.60104 22.48L2.73438 29.3333L9.73438 27.4933C11.6677 28.5466 13.841 29.1066 16.0544 29.1066C23.3344 29.1066 29.2677 23.1733 29.2677 15.8933C29.2677 12.36 27.8944 9.03997 25.401 6.54664ZM16.0544 26.8666C14.081 26.8666 12.1477 26.3333 10.4544 25.3333L10.0544 25.0933L5.89438 26.1866L7.00104 22.1333L6.73438 21.72C5.63777 19.9694 5.05561 17.9457 5.05438 15.88C5.05438 9.82664 9.98771 4.8933 16.041 4.8933C18.9744 4.8933 21.7344 6.03997 23.801 8.11997C24.8245 9.13845 25.6356 10.35 26.1872 11.6844C26.7388 13.0188 27.02 14.4494 27.0144 15.8933C27.041 21.9466 22.1077 26.8666 16.0544 26.8666ZM22.081 18.6533C21.7477 18.4933 20.121 17.6933 19.8277 17.5733C19.521 17.4666 19.3077 17.4133 19.081 17.7333C18.8544 18.0666 18.2277 18.8133 18.041 19.0266C17.8544 19.2533 17.6544 19.28 17.321 19.1066C16.9877 18.9466 15.921 18.5866 14.6677 17.4666C13.681 16.5866 13.0277 15.5066 12.8277 15.1733C12.641 14.84 12.801 14.6666 12.9744 14.4933C13.121 14.3466 13.3077 14.1066 13.4677 13.92C13.6277 13.7333 13.6944 13.5866 13.801 13.3733C13.9077 13.1466 13.8544 12.96 13.7744 12.8C13.6944 12.64 13.0277 11.0133 12.761 10.3466C12.4944 9.70664 12.2144 9.78664 12.0144 9.7733H11.3744C11.1477 9.7733 10.801 9.8533 10.4944 10.1866C10.201 10.52 9.34771 11.32 9.34771 12.9466C9.34771 14.5733 10.5344 16.1466 10.6944 16.36C10.8544 16.5866 13.0277 19.92 16.3344 21.3466C17.121 21.6933 17.7344 21.8933 18.2144 22.04C19.001 22.2933 19.721 22.2533 20.2944 22.1733C20.9344 22.08 22.2544 21.3733 22.521 20.6C22.801 19.8266 22.801 19.1733 22.7077 19.0266C22.6144 18.88 22.4144 18.8133 22.081 18.6533Z" fill="#98012E"/>
</svg>
